REM DIRINDEX 1\2,1\3,1\4
REM DIRNAME cjc149,folder01,folder02,folder03
TITLE ""
FILE "Gl_103.mp3" MP3
  TRACK 01 AUDIO
    TITLE "3:cjc149_1593"
    INDEX 01 00:00:00
  TRACK 02 AUDIO
    TITLE "3:cjc149_1594"
    INDEX 01 00:09:00
  TRACK 03 AUDIO
    TITLE "3:cjc149_1595"
    INDEX 01 00:19:11
  TRACK 04 AUDIO
    TITLE "3:cjc149_1596"
    INDEX 01 00:24:04
  TRACK 05 AUDIO
    TITLE "3:cjc149_1597"
    INDEX 01 00:30:40
